<svg width="224" height="265" viewBox="0 0 224 265" fill="none" xmlns="http://www.w3.org/2000/svg">
<g clip-path="url(#clip0_42_65)">
<path d="M81.2678 99.3139L23.2931 157.321L53.6854 187.73L111.66 129.723L81.2678 99.3139Z" fill="url(#paint0_linear_42_65)"/>
<path d="M111.644 129.724L169.613 187.726L200.005 157.316L142.036 99.3151L111.644 129.724Z" fill="url(#paint1_linear_42_65)"/>
<path d="M188.849 66.5231H163.734H163.16L111.305 118.415L59.4417 66.5231H58.8684H33.7535H0V109.52H41.6383L86.7398 154.655V265H136.216V154.301L180.964 109.52H224V66.5231H188.849Z" fill="white"/>
<path d="M157.231 0L111.643 45.6138L66.0621 0L35.6697 30.4092L81.2582 76.0151L111.643 106.424L142.035 76.0151L187.623 30.4092L157.231 0Z" fill="white"/>
<path d="M194.77 265V205.038H145.349V265H194.77Z" fill="white"/>
<path d="M76.9781 264.992V228.21H27.5023V264.992H76.9781Z" fill="white"/>
</g>
<defs>
<linearGradient id="paint0_linear_42_65" x1="6.3225" y1="169.533" x2="75.5819" y2="111.21" gradientUnits="userSpaceOnUse">
<stop offset="0.5" stop-color="white"/>
<stop offset="1" stop-color="#B8B7B7"/>
</linearGradient>
<linearGradient id="paint1_linear_42_65" x1="217.801" y1="169.472" x2="148.549" y2="111.142" gradientUnits="userSpaceOnUse">
<stop offset="0.5" stop-color="white"/>
<stop offset="1" stop-color="#B8B7B7"/>
</linearGradient>
<clipPath id="clip0_42_65">
<rect width="224" height="265" fill="white"/>
</clipPath>
</defs>
</svg>
