<svg width="42" height="48" viewBox="0 0 42 48" fill="none" xmlns="http://www.w3.org/2000/svg">
<path d="M39 3H2.99062C1.34062 3 0 4.35938 0 6.02813V41.9719C0 43.6406 1.34062 45 2.99062 45H39C40.65 45 42 43.6406 42 41.9719V6.02813C42 4.35938 40.65 3 39 3ZM12.6937 39H6.46875V18.9562H12.7031V39H12.6937ZM9.58125 16.2188C7.58437 16.2188 5.97188 14.5969 5.97188 12.6094C5.97188 10.6219 7.58437 9 9.58125 9C11.5687 9 13.1906 10.6219 13.1906 12.6094C13.1906 14.6062 11.5781 16.2188 9.58125 16.2188ZM36.0281 39H29.8031V29.25C29.8031 26.925 29.7562 23.9344 26.5687 23.9344C23.325 23.9344 22.8281 26.4656 22.8281 29.0813V39H16.6031V18.9562H22.575V21.6937H22.6594C23.4937 20.1187 25.5281 18.4594 28.5563 18.4594C34.8563 18.4594 36.0281 22.6125 36.0281 28.0125V39Z" fill="#0E76A8"/>
</svg>
